*
*
G04 PADS 9.4.1 Build Number: 494907 generated Gerber (RS-274-X) file*
G04 PC Version=2.1*
*
%IN "IRF_rev2.pcb"*%
*
%MOMM*%
*
%FSLAX35Y35*%
*
*
*
*
G04 PC Standard Apertures*
*
*
G04 Thermal Relief Aperture macro.*
%AMTER*
1,1,$1,0,0*
1,0,$1-$2,0,0*
21,0,$3,$4,0,0,45*
21,0,$3,$4,0,0,135*
%
*
*
G04 Annular Aperture macro.*
%AMANN*
1,1,$1,0,0*
1,0,$2,0,0*
%
*
*
G04 Odd Aperture macro.*
%AMODD*
1,1,$1,0,0*
1,0,$1-0.005,0,0*
%
*
*
G04 PC Custom Aperture Macros*
*
*
*
*
*
*
G04 PC Aperture Table*
*
%ADD010C,0.0254*%
%ADD011C,1.524*%
%ADD012R,1.524X1.524*%
%ADD014C,0.3048*%
%ADD015C,0.9*%
%ADD016C,0.254*%
%ADD017C,0.381*%
%ADD018R,0.95X1.7*%
%ADD019R,1.7X0.95*%
%ADD020R,0.6X0.9*%
%ADD021R,0.9144X0.9144*%
%ADD022R,1.27X0.9144*%
%ADD033R,0.9144X1.27*%
*
*
*
*
G04 PC Circuitry*
G04 Layer Name IRF_rev2.pcb - circuitry*
%LPD*%
*
*
G04 PC Custom Flashes*
G04 Layer Name IRF_rev2.pcb - flashes*
%LPD*%
*
*
G04 PC Circuitry*
G04 Layer Name IRF_rev2.pcb - circuitry*
%LPD*%
*
G54D10*
G54D11*
G01X3140000Y2500000D03*
Y2246000D03*
X2540000Y2540000D03*
Y2032000D03*
Y1778000D03*
Y1524000D03*
X4040000Y1520000D03*
Y1774000D03*
Y2028000D03*
Y2282000D03*
Y2536000D03*
X3670000Y1780000D03*
X3416000D03*
X2908000D03*
G54D12*
X2540000Y2286000D03*
G54D14*
X3390000Y1500000D02*
X3345000Y1455000D01*
X2870000*
X2755000Y1570000*
X3390000Y1500000D02*
X3360000Y1530000D01*
X3340000*
X3200000Y1670000*
X3670000Y1500000D02*
Y1780000D01*
X2905000Y1570000D02*
Y1777000D01*
X2908000Y1780000*
X2755000Y1570000D02*
Y2010000D01*
X2735000Y2030000*
X3416000Y1780000D02*
X3135000D01*
X2885000Y2030000*
X3685000Y1950000D02*
X3650000Y2005000D01*
X3280000*
X3835000Y1950000D02*
Y2230000D01*
X3765000Y2300000*
X2885000Y2030000D02*
Y2235000D01*
X2890000Y2240000*
X2735000Y2030000D02*
X2542000D01*
X2540000Y2032000*
X2735000Y2030000D02*
X2740000Y2035000D01*
Y2370000*
X3545860Y2200000D02*
X3499860Y2246000D01*
X3140000*
X3749060Y2104750D02*
X3660000Y2193810D01*
Y2260000*
X3590167Y2329833*
X3460167*
X3370000Y2420000*
Y2610000*
X3470000Y2710000*
X3705860*
X3710000Y2714140*
X2890000Y2496000D02*
Y2520000D01*
X3690000Y2400000D02*
X3694310D01*
X3805250Y2510940*
X3520000Y2420000D02*
X3605860Y2535860D01*
X3614750Y2510940*
X3749060Y2295250D02*
X3753810Y2300000D01*
X3765000*
X3805250Y2510940D02*
X4018750Y2514750D01*
X4040000Y2536000*
Y2282000D02*
Y2280000D01*
X4024750Y2295250*
X3749060*
G54D15*
X3200000Y1670000D03*
X3280000Y2005000D03*
X2740000Y2370000D03*
X3690000Y2400000D03*
X3520000Y2420000D03*
X2830000Y2710000D03*
X3030000D03*
X3230000D03*
G54D16*
X3244141Y2500000D02*
G75*
G03X3244141I-104141J0D01*
G01X4147300Y2096575D02*
Y2213425D01*
G03X4124317Y2220879I-12700J-0*
G01X3943039Y2244003D02*
G03X4124317Y2220879I96961J37997D01*
G01X3943039Y2244003D02*
G03X3931214Y2252069I-11825J-4634D01*
G01X3931214D02*
X3890089D01*
X3890089D02*
G03X3877569Y2237240I0J-12700D01*
G01X3878181Y2230000D02*
G03X3877569Y2237240I-43181J0D01*
G01X3878181Y2230000D02*
Y2026335D01*
X3878181D02*
G03X3882793Y2016543I12700J-0D01*
G01X3892941Y1995000D02*
G03X3882793Y2016543I-27941J0D01*
G01X3892941Y1995000D02*
Y1905000D01*
X3865000Y1877059D02*
G03X3892941Y1905000I0J27941D01*
G01X3865000Y1877059D02*
X3805000D01*
X3777059Y1905000D02*
G03X3805000Y1877059I27941J0D01*
G01X3777059Y1905000D02*
Y1995000D01*
X3782151Y2011080D02*
G03X3777059Y1995000I22849J-16080D01*
G01X3782151Y2011080D02*
G03X3771765Y2031089I-10386J7309D01*
G01X3771765D02*
X3748235D01*
X3748235D02*
G03X3737849Y2011080I0J-12700D01*
G01X3742940Y1995000D02*
G03X3737849Y2011080I-27940J0D01*
G01X3742941Y1995000D02*
Y1905000D01*
X3732452Y1883180D02*
G03X3742941Y1905000I-17452J21820D01*
G01X3732452Y1883180D02*
G03X3732734Y1863125I7932J-9918D01*
G01X3624932Y1873883D02*
G03X3732734Y1863125I45068J-93883D01*
G01X3624931Y1873883D02*
G03X3630549Y1891478I-5496J11449D01*
G01X3627059Y1905000D02*
G03X3630549Y1891479I27941J0D01*
G01X3627059Y1905000D02*
Y1949119D01*
X3627059D02*
G03X3614359Y1961819I-12700J0D01*
G01X3614359D02*
X3344897D01*
X3344897D02*
G03X3335273Y1957406I0J-12700D01*
G01Y2052594D02*
G03Y1957406I-55273J-47594D01*
G01Y2052594D02*
G03X3344897Y2048181I9624J8287D01*
G01X3344897D02*
X3650000D01*
X3659813Y2047051D02*
G03X3650000Y2048181I-9813J-42051D01*
G01X3659813Y2047051D02*
G03X3675399Y2059418I2886J12367D01*
G01X3675399D02*
Y2112083D01*
X3675399D02*
G03X3671680Y2121064I-12700J0D01*
G01X3652104Y2140640*
G03X3632573Y2138728I-8981J-8980*
G01X3609360Y2126340D02*
G03X3632572Y2138728I0J27940D01*
G01X3609360Y2126339D02*
X3482360D01*
X3454419Y2154280D02*
G03X3482360Y2126339I27941J0D01*
G01X3454419Y2154280D02*
Y2190119D01*
X3454419D02*
G03X3441719Y2202819I-12700J0D01*
G01X3441719D02*
X3242611D01*
X3242611D02*
G03X3231458Y2196193I0J-12700D01*
G01Y2295807D02*
G03Y2196193I-91458J-49807D01*
G01Y2295807D02*
G03X3242611Y2289181I11153J6074D01*
G01X3242611D02*
X3409092D01*
X3409092D02*
G03X3418073Y2310861I0J12700D01*
G01X3339467Y2389467*
X3326819Y2420000D02*
G03X3339467Y2389467I43181J0D01*
G01X3326819Y2420000D02*
Y2610000D01*
X3339467Y2640533D02*
G03X3326819Y2610000I30533J-30533D01*
G01X3339467Y2640533D02*
X3439467Y2740533D01*
X3470000Y2753181D02*
G03X3439467Y2740533I0J-43181D01*
G01X3470000Y2753181D02*
X3623639D01*
X3623639D02*
G03X3636339Y2765881I0J12700D01*
G01X3636339D02*
Y2777640D01*
X3636752Y2782425D02*
G03X3636339Y2777640I27528J-4785D01*
G01X3636752Y2782425D02*
G03X3624240Y2797300I-12512J2175D01*
G01X2445400*
G03X2432700Y2784600I0J-12700*
G01Y2608575*
G03X2455683Y2601121I12700J0*
G01Y2478879D02*
G03Y2601121I84317J61121D01*
G01X2455682Y2478879D02*
G03X2432700Y2471425I-10282J-7454D01*
G01Y2398437*
G03X2451150Y2387113I12700J-0*
G01X2463800Y2390140D02*
G03X2451150Y2387113I0J-27940D01*
G01X2463800Y2390141D02*
X2616200D01*
X2642563Y2371454D02*
G03X2616200Y2390141I-26363J-9254D01*
G01X2642564Y2371454D02*
G03X2667219Y2374821I11983J4206D01*
G01X2766713Y2437873D02*
G03X2667219Y2374821I-26713J-67873D01*
G01X2766713Y2437873D02*
G03X2781875Y2456818I4651J11818D01*
G01X2777059Y2472500D02*
G03X2781875Y2456819I27941J0D01*
G01X2777059Y2472500D02*
Y2567500D01*
X2805000Y2595441D02*
G03X2777059Y2567500I0J-27941D01*
G01X2805000Y2595441D02*
X2975000D01*
X3002941Y2567500D02*
G03X2975000Y2595441I-27941J0D01*
G01X3002941Y2567500D02*
Y2472500D01*
X2975000Y2444559D02*
G03X3002941Y2472500I0J27941D01*
G01X2975000Y2444559D02*
X2805000D01*
X2800676Y2444896D02*
G03X2805000Y2444559I4324J27604D01*
G01X2800676Y2444896D02*
G03X2790004Y2423103I-1966J-12547D01*
G01X2803634Y2334348D02*
G03X2790004Y2423103I-63634J35652D01*
G01X2803634Y2334348D02*
G03X2814713Y2315441I11079J-6207D01*
G01X2814713D02*
X2975000D01*
X3002941Y2287500D02*
G03X2975000Y2315441I-27941J0D01*
G01X3002941Y2287500D02*
Y2192500D01*
X2975000Y2164559D02*
G03X3002941Y2192500I0J27941D01*
G01X2975000Y2164559D02*
X2940881D01*
X2940881D02*
G03X2928181Y2151859I-0J-12700D01*
G01X2928181D02*
Y2106335D01*
X2928181D02*
G03X2932793Y2096543I12700J-0D01*
G01X2942941Y2075000D02*
G03X2932793Y2096543I-27941J0D01*
G01X2942941Y2075000D02*
Y2038387D01*
X2942941D02*
G03X2946660Y2029406I12700J-0D01*
G01X3149166Y1826900*
G03X3158147Y1823181I8981J8981*
G01X3158147D02*
X3313389D01*
X3313389D02*
G03X3324542Y1829807I-0J12700D01*
G01Y1730193D02*
G03Y1829807I91458J49807D01*
G01Y1730193D02*
G03X3313389Y1736819I-11153J-6074D01*
G01X3313389D02*
X3266373D01*
X3266373D02*
G03X3256530Y1716094I0J-12700D01*
G01X3272738Y1664570D02*
G03X3256530Y1716094I-72738J5430D01*
G01X3272738Y1664570D02*
G03X3276423Y1654644I12665J-946D01*
G01X3317638Y1613429*
G03X3331581Y1610719I8980J8980*
G01X3342500Y1612941D02*
G03X3331581Y1610719I0J-27941D01*
G01X3342500Y1612941D02*
X3437500D01*
X3465441Y1585000D02*
G03X3437500Y1612941I-27941J0D01*
G01X3465441Y1585000D02*
Y1415000D01*
X3461976Y1401525D02*
G03X3465441Y1415000I-24476J13475D01*
G01X3461976Y1401525D02*
G03X3473102Y1382700I11126J-6125D01*
G01X3586898*
G03X3598024Y1401525I0J12700*
G01X3594560Y1415000D02*
G03X3598024Y1401525I27940J0D01*
G01X3594559Y1415000D02*
Y1585000D01*
X3622500Y1612941D02*
G03X3594559Y1585000I0J-27941D01*
G01X3622500Y1612941D02*
X3717500D01*
X3745441Y1585000D02*
G03X3717500Y1612941I-27941J0D01*
G01X3745441Y1585000D02*
Y1415000D01*
X3741976Y1401525D02*
G03X3745441Y1415000I-24476J13475D01*
G01X3741976Y1401525D02*
G03X3753102Y1382700I11126J-6125D01*
G01X4134600*
G03X4147300Y1395400I0J12700*
G01Y1451425*
G03X4124317Y1458879I-12700J-0*
G01Y1581121D02*
G03Y1458879I-84317J-61121D01*
G01X4124318Y1581121D02*
G03X4147300Y1588575I10282J7454D01*
G01Y1705425*
G03X4124317Y1712879I-12700J-0*
G01Y1835121D02*
G03Y1712879I-84317J-61121D01*
G01X4124318Y1835121D02*
G03X4147300Y1842575I10282J7454D01*
G01Y1959425*
G03X4124317Y1966879I-12700J-0*
G01Y2089121D02*
G03Y1966879I-84317J-61121D01*
G01X4124318Y2089121D02*
G03X4147300Y2096575I10282J7454D01*
G01Y2604575D02*
Y2784600D01*
G03X4134600Y2797300I-12700J0*
G01X3795760*
G03X3783248Y2782425I0J-12700*
G01X3783660Y2777640D02*
G03X3783248Y2782425I-27940J0D01*
G01X3783661Y2777640D02*
Y2650640D01*
X3755720Y2622699D02*
G03X3783661Y2650640I0J27941D01*
G01X3755720Y2622699D02*
X3664280D01*
X3636339Y2650640D02*
G03X3664280Y2622699I27941J0D01*
G01X3636339Y2650640D02*
Y2654119D01*
X3636339D02*
G03X3623639Y2666819I-12700J0D01*
G01X3623639D02*
X3493147D01*
X3493147D02*
G03X3484166Y2663100I-0J-12700D01*
G01X3416900Y2595834*
G03X3413181Y2586853I8981J-8981*
G01X3413181D02*
Y2443147D01*
X3413181D02*
G03X3416900Y2434166I12700J-0D01*
G01X3474333Y2376733*
G03X3483314Y2373013I8981J8980*
G01X3483314D02*
X3590167D01*
X3602384Y2371249D02*
G03X3590167Y2373013I-12217J-41416D01*
G01X3602385Y2371249D02*
G03X3618438Y2385887I3593J12181D01*
G01X3620128Y2420934D02*
G03X3618438Y2385887I69872J-20934D01*
G01X3620128Y2420935D02*
G03X3607963Y2437279I-12165J3644D01*
G01X3607963D02*
X3569030D01*
X3541089Y2465220D02*
G03X3569030Y2437279I27941J0D01*
G01X3541089Y2465220D02*
Y2556660D01*
X3569030Y2584601D02*
G03X3541089Y2556660I0J-27941D01*
G01X3569030Y2584601D02*
X3660470D01*
X3688411Y2556660D02*
G03X3660470Y2584601I-27941J0D01*
G01X3688411Y2556660D02*
Y2485828D01*
X3688411D02*
G03X3710091Y2476847I12700J-0D01*
G01X3727870Y2494626*
G03X3731589Y2503607I-8981J8981*
G01X3731589D02*
Y2556660D01*
X3759530Y2584601D02*
G03X3731589Y2556660I0J-27941D01*
G01X3759530Y2584601D02*
X3850970D01*
X3877732Y2564690D02*
G03X3850970Y2584601I-26762J-8030D01*
G01X3877732Y2564690D02*
G03X3890122Y2555642I12164J3650D01*
G01X3890123D02*
X3928149Y2556321D01*
X3928149D02*
G03X3940104Y2565430I-227J12698D01*
G01X4124317Y2597121D02*
G03X3940104Y2565430I-84317J-61121D01*
G01X4124318Y2597121D02*
G03X4147300Y2604575I10282J7454D01*
G01X2696819Y2109866D02*
Y2305103D01*
X2696819D02*
G03X2692406Y2314727I-12700J-0D01*
G01X2669173Y2352570D02*
G03X2692406Y2314727I70827J17430D01*
G01X2669173Y2352570D02*
G03X2644141Y2349535I-12332J-3035D01*
G01X2644141D02*
Y2209800D01*
X2616200Y2181859D02*
G03X2644141Y2209800I0J27941D01*
G01X2616200Y2181859D02*
X2463800D01*
X2451150Y2184887D02*
G03X2463800Y2181859I12650J24913D01*
G01X2451150Y2184887D02*
G03X2432700Y2173563I-5750J-11324D01*
G01Y2100575*
G03X2455683Y2093121I12700J0*
G01X2632406Y2080024D02*
G03X2455683Y2093121I-92406J-48024D01*
G01X2632407Y2080024D02*
G03X2643675Y2073181I11268J5857D01*
G01X2643675D02*
X2665843D01*
X2665843D02*
G03X2678079Y2082480I0J12700D01*
G01X2690645Y2098971D02*
G03X2678080Y2082480I14355J-23971D01*
G01X2690644Y2098971D02*
G03X2696819Y2109866I-6525J10895D01*
G01X3244141Y2500000D02*
G03X3244141I-104141J0D01*
G01X2644141Y2297067D02*
X2696819D01*
X2644141Y2274207D02*
X2696819D01*
X2644141Y2251347D02*
X2696819D01*
X2644141Y2228487D02*
X2696819D01*
X2643827Y2205627D02*
X2696819D01*
X2623262Y2182767D02*
X2696819D01*
X2432700Y2159907D02*
X2696819D01*
X2432700Y2137047D02*
X2696819D01*
X2603958Y2114187D02*
X2696819D01*
X2644141Y2319927D02*
X2686962D01*
X2625590Y2091327D02*
X2682326D01*
X2644141Y2342787D02*
X2672326D01*
X2432700Y2114187D02*
X2476042D01*
X2436648Y2182767D02*
X2456738D01*
X2436696Y2091327D02*
X2454104D01*
X3783661Y2777127D02*
X4147300D01*
X3783661Y2754267D02*
X4147300D01*
X3783661Y2731407D02*
X4147300D01*
X3783661Y2708547D02*
X4147300D01*
X3783661Y2685687D02*
X4147300D01*
X3783661Y2662827D02*
X4147300D01*
X4046015Y2639967D02*
X4147300D01*
X4105322Y2617107D02*
X4147300D01*
X4127210Y2594247D02*
X4141990D01*
X3781542Y2639967D02*
X4033985D01*
X3438173Y2617107D02*
X3974678D01*
X3415554Y2594247D02*
X3953672D01*
X3874714Y2571387D02*
X3942056D01*
X3684214D02*
X3735786D01*
X3688411Y2548527D02*
X3731589D01*
X3688411Y2525667D02*
X3731589D01*
X3688411Y2502807D02*
X3731564D01*
X3689854Y2479947D02*
X3713190D01*
X3461033Y2639967D02*
X3638458D01*
X3483893Y2662827D02*
X3632885D01*
X3462560Y2388507D02*
X3617971D01*
X3439700Y2411367D02*
X3617951D01*
X3416840Y2434227D02*
X3616222D01*
X3413181Y2571387D02*
X3545286D01*
X3413181Y2457087D02*
X3542299D01*
X3413181Y2548527D02*
X3541089D01*
X3413181Y2525667D02*
X3541089D01*
X3413181Y2502807D02*
X3541089D01*
X3413181Y2479947D02*
X3541089D01*
X4110798Y2205627D02*
X4147300D01*
X4071591Y2182767D02*
X4147300D01*
X3878181Y2159907D02*
X4147300D01*
X3878181Y2137047D02*
X4147300D01*
X4098456Y2114187D02*
X4147300D01*
X4113443Y1954167D02*
X4147300D01*
X4078674Y1931307D02*
X4147300D01*
X3892941Y1908447D02*
X4147300D01*
X3885095Y1885587D02*
X4147300D01*
X4094524Y1862727D02*
X4147300D01*
X4115911Y1702707D02*
X4147300D01*
X4084502Y1679847D02*
X4147300D01*
X3274575Y1656987D02*
X4147300D01*
X3296940Y1634127D02*
X4147300D01*
X4090156Y1611267D02*
X4147300D01*
X4118219Y1451247D02*
X4147300D01*
X4089520Y1428387D02*
X4147300D01*
X3743786Y1405527D02*
X4147300D01*
X4118522Y1588407D02*
X4147299D01*
X4120665Y1839867D02*
X4147008D01*
X4122674Y2091327D02*
X4146165D01*
X3878181Y2182767D02*
X4008409D01*
X3892941Y1931307D02*
X4001326D01*
X3698541Y1679847D02*
X3995498D01*
X3745441Y1428387D02*
X3990480D01*
X3727026Y1611267D02*
X3989844D01*
X3733258Y1862727D02*
X3985476D01*
X3878181Y2114187D02*
X3981544D01*
X3878181Y2205627D02*
X3969202D01*
X3892941Y1954167D02*
X3966557D01*
X3739792Y1702707D02*
X3964089D01*
X3745441Y1451247D02*
X3961781D01*
X3745232Y1588407D02*
X3961478D01*
X3755213Y1839867D02*
X3959335D01*
X3878181Y2091327D02*
X3957326D01*
X3878181Y2228487D02*
X3950660D01*
X3892941Y1977027D02*
X3949187D01*
X3758782Y1725567D02*
X3947807D01*
X3745441Y1474107D02*
X3946517D01*
X3745441Y1565547D02*
X3946348D01*
X3767344Y1817007D02*
X3945154D01*
X3878181Y2068467D02*
X3944043D01*
X3892510Y1999887D02*
X3939726D01*
X3769239Y1748427D02*
X3939048D01*
X3745441Y1496967D02*
X3938439D01*
X3745441Y1542687D02*
X3938361D01*
X3773175Y1794147D02*
X3937827D01*
X3878181Y2045607D02*
X3937359D01*
X3878698Y2022747D02*
X3935992D01*
X3773775Y1771287D02*
X3935895D01*
X3745441Y1519827D02*
X3935860D01*
X3885866Y2251347D02*
X3935438D01*
X3735095Y1885587D02*
X3784905D01*
X3736306Y2022747D02*
X3783694D01*
X3742510Y1999887D02*
X3777490D01*
X3742941Y1977027D02*
X3777059D01*
X3742941Y1954167D02*
X3777059D01*
X3742941Y1931307D02*
X3777059D01*
X3742941Y1908447D02*
X3777059D01*
X2937674Y2091327D02*
X3675399D01*
X3315949Y2068467D02*
X3675399D01*
X2928181Y2114187D02*
X3675224D01*
X3631353Y2137047D02*
X3655697D01*
X3444541Y1679847D02*
X3641459D01*
X2432700Y2777127D02*
X3636339D01*
X3090480Y1885587D02*
X3632133D01*
X2432700Y2754267D02*
X3628778D01*
X3044760Y1931307D02*
X3627059D01*
X3067620Y1908447D02*
X3627059D01*
X3332310Y1954167D02*
X3626013D01*
X3447026Y1611267D02*
X3612974D01*
X3479258Y1862727D02*
X3606742D01*
X3485792Y1702707D02*
X3600208D01*
X3463786Y1405527D02*
X3596214D01*
X3465232Y1588407D02*
X3594768D01*
X3465441Y1565547D02*
X3594559D01*
X3465441Y1542687D02*
X3594559D01*
X3465441Y1519827D02*
X3594559D01*
X3465441Y1496967D02*
X3594559D01*
X3465441Y1474107D02*
X3594559D01*
X3465441Y1451247D02*
X3594559D01*
X3465441Y1428387D02*
X3594559D01*
X3501213Y1839867D02*
X3584787D01*
X3504782Y1725567D02*
X3581218D01*
X3513344Y1817007D02*
X3572656D01*
X3515239Y1748427D02*
X3570761D01*
X3519175Y1794147D02*
X3566825D01*
X3519775Y1771287D02*
X3566225D01*
X2928181Y2137047D02*
X3460367D01*
X3222745Y2182767D02*
X3454419D01*
X3198593Y2159907D02*
X3454419D01*
X2432700Y2731407D02*
X3430340D01*
X3230760Y2297067D02*
X3420845D01*
X3213349Y2319927D02*
X3409007D01*
X2432700Y2708547D02*
X3407480D01*
X3272273Y1679847D02*
X3387459D01*
X3178439Y2342787D02*
X3386147D01*
X2432700Y2685687D02*
X3384620D01*
X2812811Y2365647D02*
X3363287D01*
X2432700Y2662827D02*
X3361760D01*
X3113340Y1862727D02*
X3352742D01*
X3265197Y1702707D02*
X3346208D01*
X2810554Y2388507D02*
X3340427D01*
X2569188Y2639967D02*
X3338910D01*
X3320524Y1611267D02*
X3332974D01*
X3136200Y1839867D02*
X3330787D01*
X3194675Y2411367D02*
X3327691D01*
X2609999Y2617107D02*
X3327408D01*
X3253756Y1725567D02*
X3327218D01*
X3184304Y2594247D02*
X3326819D01*
X3215823Y2571387D02*
X3326819D01*
X3232143Y2548527D02*
X3326819D01*
X3240928Y2525667D02*
X3326819D01*
X3244103Y2502807D02*
X3326819D01*
X3242192Y2479947D02*
X3326819D01*
X3234888Y2457087D02*
X3326819D01*
X3220741Y2434227D02*
X3326819D01*
X2942941Y2068467D02*
X3244051D01*
X3021900Y1954167D02*
X3227690D01*
X2942941Y2045607D02*
X3219408D01*
X2999040Y1977027D02*
X3212637D01*
X2953320Y2022747D02*
X3209251D01*
X2976180Y1999887D02*
X3207239D01*
X2807674Y2342787D02*
X3101561D01*
X2983080Y2594247D02*
X3095696D01*
X2800076Y2411367D02*
X3085325D01*
X2931055Y2159907D02*
X3081407D01*
X2805027Y2319927D02*
X3066651D01*
X3002669Y2571387D02*
X3064177D01*
X2786150Y2434227D02*
X3059259D01*
X3001190Y2182767D02*
X3057255D01*
X3001252Y2297067D02*
X3049240D01*
X3002941Y2548527D02*
X3047857D01*
X2998305Y2457087D02*
X3045112D01*
X3002941Y2205627D02*
X3044004D01*
X3002941Y2274207D02*
X3039752D01*
X3002941Y2525667D02*
X3039072D01*
X3002941Y2479947D02*
X3037808D01*
X3002941Y2228487D02*
X3037343D01*
X3002941Y2251347D02*
X3035997D01*
X3002941Y2502807D02*
X3035897D01*
X2628896Y2594247D02*
X2796920D01*
X2603013Y2457087D02*
X2781695D01*
X2639298Y2571387D02*
X2777331D01*
X2643791Y2548527D02*
X2777059D01*
X2643149Y2525667D02*
X2777059D01*
X2637272Y2502807D02*
X2777059D01*
X2625081Y2479947D02*
X2777059D01*
X2432700Y2434227D02*
X2705428D01*
X2432700Y2411367D02*
X2679924D01*
X2625614Y2388507D02*
X2669446D01*
X2646735Y2365647D02*
X2662358D01*
X2432700Y2639967D02*
X2510812D01*
X2432700Y2457087D02*
X2476987D01*
X2432700Y2617107D02*
X2470001D01*
X2435984Y2479947D02*
X2454816D01*
X2437483Y2388507D02*
X2454386D01*
X3549273Y2576417D02*
X3582421Y2543269D01*
X3549273Y2445463D02*
X3582421Y2478611D01*
X3680227Y2576417D02*
X3647079Y2543269D01*
X2994757Y2452743D02*
X2961088Y2486412D01*
X2994757Y2587257D02*
X2961088Y2553588D01*
X2785243Y2587257D02*
X2818912Y2553588D01*
X2785243Y2452743D02*
X2818912Y2486412D01*
X3602743Y1395243D02*
X3636412Y1428912D01*
X3737257Y1395243D02*
X3703588Y1428912D01*
X3737257Y1604757D02*
X3703588Y1571088D01*
X3602743Y1604757D02*
X3636412Y1571088D01*
X2390000Y1340000D02*
X4190000D01*
Y2840000*
X2390000*
Y1340000*
G54D17*
X3596362Y1706362D02*
X3616118Y1726118D01*
X3743638Y1706362D02*
X3723882Y1726118D01*
X3743638Y1853638D02*
X3723882Y1833882D01*
X3596362Y1853638D02*
X3616118Y1833882D01*
X2444043Y2190043D02*
X2486118Y2232118D01*
X2635957Y2190043D02*
X2593882Y2232118D01*
X2444043Y2381957D02*
X2486118Y2339882D01*
X2635957Y2381957D02*
X2593882Y2339882D01*
G54D18*
X3390000Y1500000D03*
X3670000D03*
G54D19*
X2890000Y2240000D03*
Y2520000D03*
G54D20*
X3685000Y1950000D03*
X3835000D03*
X2735000Y2030000D03*
X2885000D03*
X2755000Y1570000D03*
X2905000D03*
G54D21*
X3805250Y2510940D03*
X3614750D03*
X3749060Y2295250D03*
Y2104750D03*
G54D22*
X3545860Y2200000D03*
G54D33*
X3710000Y2714140D03*
G74*
X0Y0D02*
M02*
