*
*
G04 PADS 9.4.1 Build Number: 494907 generated Gerber (RS-274-X) file*
G04 PC Version=2.1*
*
%IN "IRF_rev2.pcb"*%
*
%MOMM*%
*
%FSLAX35Y35*%
*
*
*
*
G04 PC Standard Apertures*
*
*
G04 Thermal Relief Aperture macro.*
%AMTER*
1,1,$1,0,0*
1,0,$1-$2,0,0*
21,0,$3,$4,0,0,45*
21,0,$3,$4,0,0,135*
%
*
*
G04 Annular Aperture macro.*
%AMANN*
1,1,$1,0,0*
1,0,$2,0,0*
%
*
*
G04 Odd Aperture macro.*
%AMODD*
1,1,$1,0,0*
1,0,$1-0.005,0,0*
%
*
*
G04 PC Custom Aperture Macros*
*
*
*
*
*
*
G04 PC Aperture Table*
*
%ADD010C,0.0254*%
%ADD016C,0.254*%
*
*
*
*
G04 PC Circuitry*
G04 Layer Name IRF_rev2.pcb - circuitry*
%LPD*%
*
*
G04 PC Custom Flashes*
G04 Layer Name IRF_rev2.pcb - flashes*
%LPD*%
*
*
G04 PC Circuitry*
G04 Layer Name IRF_rev2.pcb - circuitry*
%LPD*%
*
G54D10*
G54D16*
G01X3038400Y2398400D02*
X3241600D01*
Y2601600*
X3038400*
Y2398400*
X3140000Y2500000D02*
Y2601600D01*
X3038400Y2144400D02*
X3241600D01*
Y2347600*
X3038400*
Y2144400*
X3140000Y2246000D02*
Y2347600D01*
X2438400Y2540000D02*
X2641600D01*
X2540000Y2438400D02*
Y2641600D01*
X2438400Y2286000D02*
X2641600D01*
X2540000Y2184400D02*
Y2387600D01*
X2438400Y2032000D02*
X2641600D01*
X2540000Y1930400D02*
Y2133600D01*
X2438400Y1778000D02*
X2641600D01*
X2540000Y1676400D02*
Y1879600D01*
X2438400Y1524000D02*
X2641600D01*
X2540000Y1422400D02*
Y1625600D01*
X3938400Y1520000D02*
X4141600D01*
X4040000Y1418400D02*
Y1621600D01*
X3938400Y1774000D02*
X4141600D01*
X4040000Y1672400D02*
Y1875600D01*
X3938400Y2028000D02*
X4141600D01*
X4040000Y1926400D02*
Y2129600D01*
X3938400Y2282000D02*
X4141600D01*
X4040000Y2180400D02*
Y2383600D01*
X3938400Y2536000D02*
X4141600D01*
X4040000Y2434400D02*
Y2637600D01*
X3568400Y1780000D02*
X3771600D01*
X3670000Y1678400D02*
Y1881600D01*
X3314400Y1780000D02*
X3517600D01*
X3416000Y1678400D02*
Y1881600D01*
X2806400Y1780000D02*
X3009600D01*
X2908000Y1678400D02*
Y1881600D01*
X3098400Y1568400D02*
X3301600Y1771600D01*
X3098400D02*
X3301600Y1568400D01*
X3178400Y1903400D02*
X3381600Y2106600D01*
X3178400D02*
X3381600Y1903400D01*
X2638400Y2268400D02*
X2841600Y2471600D01*
X2638400D02*
X2841600Y2268400D01*
X3588400Y2298400D02*
X3791600Y2501600D01*
X3588400D02*
X3791600Y2298400D01*
X3418400Y2318400D02*
X3621600Y2521600D01*
X3418400D02*
X3621600Y2318400D01*
X2728400Y2608400D02*
X2931600Y2811600D01*
X2728400D02*
X2931600Y2608400D01*
X2928400D02*
X3131600Y2811600D01*
X2928400D02*
X3131600Y2608400D01*
X3128400D02*
X3331600Y2811600D01*
X3128400D02*
X3331600Y2608400D01*
X2390000Y1340000D02*
X4190000D01*
Y2840000*
X2390000*
Y1340000*
X7540000Y4978400D02*
X14093200D01*
X7540000Y4368800D02*
X14093200D01*
X7540000Y3759200D02*
X14093200D01*
X7540000Y3149600D02*
X14093200D01*
X7540000Y2540000D02*
X14093200D01*
X7540000Y4978400D02*
Y2540000D01*
X9673600Y4978400D02*
Y2540000D01*
X10588000Y4978400D02*
Y2540000D01*
X11502400Y4978400D02*
Y2540000D01*
X12874000Y4978400D02*
Y2540000D01*
X14093200Y4978400D02*
Y2540000D01*
X8441700Y4692650D02*
X8427845Y4711700D01*
X8427845D02*
X8407064Y4721225D01*
X8379355*
X8379355D02*
X8358573Y4711700D01*
X8344718Y4692650*
Y4673600*
X8351645Y4654550*
X8351645D02*
X8358573Y4645025D01*
X8372427Y4635500*
X8413991Y4616450*
X8427845Y4606925*
X8427845D02*
X8434773Y4597400D01*
X8441700Y4578350*
Y4549775*
X8427845Y4530725*
X8427845D02*
X8407064Y4521200D01*
X8379355*
X8379355D02*
X8358573Y4530725D01*
X8344718Y4549775*
X8504045Y4721225D02*
Y4521200D01*
X8663373Y4721225D02*
X8566391Y4521200D01*
Y4721225D02*
X8663373D01*
X8566391Y4521200D02*
X8663373D01*
X8725718Y4721225D02*
Y4521200D01*
Y4721225D02*
X8815773D01*
X8725718Y4625975D02*
X8781136D01*
X8725718Y4521200D02*
X8815773D01*
X9924136Y4721225D02*
X9910282Y4711700D01*
X9896427Y4692650*
X9889500Y4673600*
X9882573Y4645025*
Y4597400*
X9889500Y4568825*
X9896427Y4549775*
X9910282Y4530725*
X9924136Y4521200*
X9951845*
X9951845D02*
X9965700Y4530725D01*
X9979555Y4549775*
X9979555D02*
X9986482Y4568825D01*
X9993409Y4597400*
Y4645025*
X9986482Y4673600*
X9979555Y4692650*
X9979555D02*
X9965700Y4711700D01*
X9951845Y4721225*
X9951845D02*
X9924136D01*
X9944918Y4559300D02*
X9986482Y4502150D01*
X10104245Y4721225D02*
Y4521200D01*
X10055755Y4721225D02*
X10152736D01*
X10215082D02*
X10270500Y4625975D01*
Y4521200*
X10325918Y4721225D02*
X10270500Y4625975D01*
X10893955Y4692650D02*
X10880100Y4711700D01*
X10859318Y4721225*
X10831609*
X10810827Y4711700*
X10796973Y4692650*
Y4673600*
X10803900Y4654550*
X10810827Y4645025*
X10824682Y4635500*
X10866245Y4616450*
X10866245D02*
X10880100Y4606925D01*
X10887027Y4597400*
X10893955Y4578350*
X10893955D02*
Y4549775D01*
X10893955D02*
X10880100Y4530725D01*
X10859318Y4521200*
X10831609*
X10810827Y4530725*
X10796973Y4549775*
X10956300Y4721225D02*
X11011718Y4625975D01*
Y4521200*
X11067136Y4721225D02*
X11011718Y4625975D01*
X11129482Y4721225D02*
Y4521200D01*
Y4721225D02*
X11184900Y4521200D01*
X11240318Y4721225D02*
X11184900Y4521200D01*
X11240318Y4721225D02*
Y4521200D01*
X11794500Y4721225D02*
Y4521200D01*
Y4721225D02*
X11856845D01*
X11856845D02*
X11877627Y4711700D01*
X11884555Y4702175*
X11884555D02*
X11891482Y4683125D01*
Y4654550*
X11884555Y4635500*
X11884555D02*
X11877627Y4625975D01*
X11856845Y4616450*
X11856845D02*
X11794500D01*
X11953827Y4721225D02*
Y4521200D01*
X12036955*
X12154718Y4721225D02*
X12099300Y4521200D01*
X12154718Y4721225D02*
X12210136Y4521200D01*
X12120082Y4587875D02*
X12189355D01*
X12320973Y4721225D02*
Y4521200D01*
X12272482Y4721225D02*
X12369464D01*
X12431809D02*
Y4521200D01*
Y4721225D02*
X12521864D01*
X12431809Y4625975D02*
X12487227D01*
X12431809Y4521200D02*
X12521864D01*
X12584209Y4721225D02*
Y4521200D01*
Y4721225D02*
X12632700D01*
X12653482Y4711700*
X12667336Y4692650*
X12674264Y4673600*
X12681191Y4645025*
Y4597400*
X12674264Y4568825*
X12667336Y4549775*
X12653482Y4530725*
X12632700Y4521200*
X12584209*
X13297718Y4721225D02*
Y4521200D01*
X13249227Y4721225D02*
X13346209D01*
X13450118D02*
X13436264Y4711700D01*
X13422409Y4692650*
X13415482Y4673600*
X13408555Y4645025*
X13408555D02*
Y4597400D01*
X13408555D02*
X13415482Y4568825D01*
X13422409Y4549775*
X13436264Y4530725*
X13450118Y4521200*
X13477827*
X13491682Y4530725*
X13505536Y4549775*
X13512464Y4568825*
X13519391Y4597400*
Y4645025*
X13512464Y4673600*
X13505536Y4692650*
X13491682Y4711700*
X13477827Y4721225*
X13450118*
X13581736D02*
Y4521200D01*
X13664864*
X7733964Y4111625D02*
X7713182Y4102100D01*
X7699327Y4073525*
X7692400Y4025900*
Y3997325*
X7699327Y3949700*
X7713182Y3921125*
X7733964Y3911600*
X7747818*
X7768600Y3921125*
X7782455Y3949700*
X7782455D02*
X7789382Y3997325D01*
Y4025900*
X7782455Y4073525*
X7782455D02*
X7768600Y4102100D01*
X7747818Y4111625*
X7733964*
X7858655Y3930650D02*
X7851727Y3921125D01*
X7858655Y3911600*
X7858655D02*
X7865582Y3921125D01*
X7858655Y3930650*
X7962564Y4111625D02*
X7941782Y4102100D01*
X7934855Y4083050*
X7934855D02*
Y4064000D01*
X7934855D02*
X7941782Y4044950D01*
X7955636Y4035425*
X7983345Y4025900*
X7983345D02*
X8004127Y4016375D01*
X8017982Y3997325*
X8024909Y3978275*
Y3949700*
X8017982Y3930650*
X8011055Y3921125*
X8011055D02*
X7990273Y3911600D01*
X7962564*
X7941782Y3921125*
X7934855Y3930650*
X7934855D02*
X7927927Y3949700D01*
Y3978275*
X7934855Y3997325*
X7934855D02*
X7948709Y4016375D01*
X7969491Y4025900*
X7997200Y4035425*
X8011055Y4044950*
X8011055D02*
X8017982Y4064000D01*
Y4083050*
X8011055Y4102100*
X8011055D02*
X7990273Y4111625D01*
X7962564*
X8121891D02*
X8101109Y4102100D01*
X8094182Y4083050*
Y4064000*
X8101109Y4044950*
X8114964Y4035425*
X8142673Y4025900*
X8163455Y4016375*
X8163455D02*
X8177309Y3997325D01*
X8184236Y3978275*
Y3949700*
X8177309Y3930650*
X8170382Y3921125*
X8149600Y3911600*
X8121891*
X8101109Y3921125*
X8094182Y3930650*
X8087255Y3949700*
X8087255D02*
Y3978275D01*
X8087255D02*
X8094182Y3997325D01*
X8108036Y4016375*
X8128818Y4025900*
X8156527Y4035425*
X8170382Y4044950*
X8177309Y4064000*
Y4083050*
X8170382Y4102100*
X8149600Y4111625*
X8121891*
X8336636Y4044950D02*
X8329709Y4016375D01*
X8315855Y3997325*
X8315855D02*
X8295073Y3987800D01*
X8288145*
X8288145D02*
X8267364Y3997325D01*
X8253509Y4016375*
X8246582Y4044950*
Y4054475*
X8253509Y4083050*
X8267364Y4102100*
X8288145Y4111625*
X8288145D02*
X8295073D01*
X8315855Y4102100*
X8315855D02*
X8329709Y4083050D01*
X8336636Y4044950*
Y3997325*
X8329709Y3949700*
X8315855Y3921125*
X8315855D02*
X8295073Y3911600D01*
X8281218*
X8260436Y3921125*
X8253509Y3940175*
X10007264Y4073525D02*
X10021118Y4083050D01*
X10041900Y4111625*
Y3911600*
X10118100Y4111625D02*
X10194300D01*
X10152736Y4035425*
X10173518*
X10187373Y4025900*
X10194300Y4016375*
X10201227Y3987800*
Y3968750*
X10194300Y3940175*
X10180445Y3921125*
X10180445D02*
X10159664Y3911600D01*
X10138882*
X10118100Y3921125*
X10111173Y3930650*
X10104245Y3949700*
X10892800Y4064000D02*
X11197600D01*
X11045200Y3911600D02*
Y4216400D01*
X11721764Y4111625D02*
X11777182Y4016375D01*
Y3911600*
X11832600Y4111625D02*
X11777182Y4016375D01*
X11894945Y4111625D02*
Y3911600D01*
Y4111625D02*
X11985000D01*
X11894945Y4016375D02*
X11950364D01*
X11894945Y3911600D02*
X11985000D01*
X12144327Y4083050D02*
X12130473Y4102100D01*
X12109691Y4111625*
X12081982*
X12061200Y4102100*
X12047345Y4083050*
X12047345D02*
Y4064000D01*
X12047345D02*
X12054273Y4044950D01*
X12061200Y4035425*
X12075055Y4025900*
X12116618Y4006850*
X12130473Y3997325*
X12137400Y3987800*
X12144327Y3968750*
Y3940175*
X12130473Y3921125*
X12109691Y3911600*
X12081982*
X12061200Y3921125*
X12047345Y3940175*
X13072582Y4083050D02*
Y3911600D01*
X13010236Y3997325D02*
X13134927D01*
X13321964Y4149725D02*
X13197273Y3844925D01*
X13384309Y3997325D02*
X13509000D01*
X13612909Y4111625D02*
X13592127Y4102100D01*
X13578273Y4073525*
X13571345Y4025900*
X13571345D02*
Y3997325D01*
X13571345D02*
X13578273Y3949700D01*
X13592127Y3921125*
X13612909Y3911600*
X13626764*
X13647545Y3921125*
X13647545D02*
X13661400Y3949700D01*
X13668327Y3997325*
Y4025900*
X13661400Y4073525*
X13647545Y4102100*
X13647545D02*
X13626764Y4111625D01*
X13612909*
X13737600Y3930650D02*
X13730673Y3921125D01*
X13737600Y3911600*
X13744527Y3921125*
X13737600Y3930650*
X13848436Y4111625D02*
X13827655Y4102100D01*
X13813800Y4073525*
X13806873Y4025900*
Y3997325*
X13813800Y3949700*
X13827655Y3921125*
X13848436Y3911600*
X13862291*
X13883073Y3921125*
X13896927Y3949700*
X13903855Y3997325*
Y4025900*
X13896927Y4073525*
X13883073Y4102100*
X13862291Y4111625*
X13848436*
X7733964Y3502025D02*
X7713182Y3492500D01*
X7699327Y3463925*
X7692400Y3416300*
Y3387725*
X7699327Y3340100*
X7713182Y3311525*
X7733964Y3302000*
X7747818*
X7768600Y3311525*
X7782455Y3340100*
X7782455D02*
X7789382Y3387725D01*
Y3416300*
X7782455Y3463925*
X7782455D02*
X7768600Y3492500D01*
X7747818Y3502025*
X7733964*
X7858655Y3321050D02*
X7851727Y3311525D01*
X7858655Y3302000*
X7858655D02*
X7865582Y3311525D01*
X7858655Y3321050*
X8017982Y3502025D02*
X7948709D01*
X7941782Y3416300*
X7948709Y3425825*
X7969491Y3435350*
X7990273*
X8011055Y3425825*
X8011055D02*
X8024909Y3406775D01*
X8031836Y3378200*
X8024909Y3359150*
X8017982Y3330575*
X8004127Y3311525*
X7983345Y3302000*
X7983345D02*
X7962564D01*
X7941782Y3311525*
X7934855Y3321050*
X7934855D02*
X7927927Y3340100D01*
X10090391Y3502025D02*
X10069609Y3492500D01*
X10062682Y3473450*
Y3454400*
X10069609Y3435350*
X10083464Y3425825*
X10111173Y3416300*
X10131955Y3406775*
X10131955D02*
X10145809Y3387725D01*
X10152736Y3368675*
Y3340100*
X10145809Y3321050*
X10138882Y3311525*
X10118100Y3302000*
X10090391*
X10069609Y3311525*
X10062682Y3321050*
X10055755Y3340100*
X10055755D02*
Y3368675D01*
X10055755D02*
X10062682Y3387725D01*
X10076536Y3406775*
X10097318Y3416300*
X10125027Y3425825*
X10138882Y3435350*
X10145809Y3454400*
Y3473450*
X10138882Y3492500*
X10118100Y3502025*
X10090391*
X10892800Y3302000D02*
X11197600Y3606800D01*
X10892800D02*
X11197600Y3302000D01*
X11721764Y3502025D02*
X11777182Y3406775D01*
Y3302000*
X11832600Y3502025D02*
X11777182Y3406775D01*
X11894945Y3502025D02*
Y3302000D01*
Y3502025D02*
X11985000D01*
X11894945Y3406775D02*
X11950364D01*
X11894945Y3302000D02*
X11985000D01*
X12144327Y3473450D02*
X12130473Y3492500D01*
X12109691Y3502025*
X12081982*
X12061200Y3492500*
X12047345Y3473450*
X12047345D02*
Y3454400D01*
X12047345D02*
X12054273Y3435350D01*
X12061200Y3425825*
X12075055Y3416300*
X12116618Y3397250*
X12130473Y3387725*
X12137400Y3378200*
X12144327Y3359150*
Y3330575*
X12130473Y3311525*
X12109691Y3302000*
X12081982*
X12061200Y3311525*
X12047345Y3330575*
X13072582Y3473450D02*
Y3302000D01*
X13010236Y3387725D02*
X13134927D01*
X13321964Y3540125D02*
X13197273Y3235325D01*
X13384309Y3387725D02*
X13509000D01*
X13612909Y3502025D02*
X13592127Y3492500D01*
X13578273Y3463925*
X13571345Y3416300*
X13571345D02*
Y3387725D01*
X13571345D02*
X13578273Y3340100D01*
X13592127Y3311525*
X13612909Y3302000*
X13626764*
X13647545Y3311525*
X13647545D02*
X13661400Y3340100D01*
X13668327Y3387725*
Y3416300*
X13661400Y3463925*
X13647545Y3492500*
X13647545D02*
X13626764Y3502025D01*
X13612909*
X13737600Y3321050D02*
X13730673Y3311525D01*
X13737600Y3302000*
X13744527Y3311525*
X13737600Y3321050*
X13848436Y3502025D02*
X13827655Y3492500D01*
X13813800Y3463925*
X13806873Y3416300*
Y3387725*
X13813800Y3340100*
X13827655Y3311525*
X13848436Y3302000*
X13862291*
X13883073Y3311525*
X13896927Y3340100*
X13903855Y3387725*
Y3416300*
X13896927Y3463925*
X13883073Y3492500*
X13862291Y3502025*
X13848436*
X7733964Y2892425D02*
X7713182Y2882900D01*
X7699327Y2854325*
X7692400Y2806700*
Y2778125*
X7699327Y2730500*
X7713182Y2701925*
X7733964Y2692400*
X7747818*
X7768600Y2701925*
X7782455Y2730500*
X7782455D02*
X7789382Y2778125D01*
Y2806700*
X7782455Y2854325*
X7782455D02*
X7768600Y2882900D01*
X7747818Y2892425*
X7733964*
X7858655Y2711450D02*
X7851727Y2701925D01*
X7858655Y2692400*
X7858655D02*
X7865582Y2701925D01*
X7858655Y2711450*
X8017982Y2825750D02*
X8011055Y2797175D01*
X8011055D02*
X7997200Y2778125D01*
X7976418Y2768600*
X7969491*
X7948709Y2778125*
X7934855Y2797175*
X7934855D02*
X7927927Y2825750D01*
Y2835275*
X7934855Y2863850*
X7934855D02*
X7948709Y2882900D01*
X7969491Y2892425*
X7976418*
X7997200Y2882900*
X8011055Y2863850*
X8011055D02*
X8017982Y2825750D01*
Y2778125*
X8011055Y2730500*
X8011055D02*
X7997200Y2701925D01*
X7976418Y2692400*
X7962564*
X7941782Y2701925*
X7934855Y2720975*
X8094182Y2892425D02*
X8170382D01*
X8128818Y2816225*
X8149600*
X8163455Y2806700*
X8163455D02*
X8170382Y2797175D01*
X8177309Y2768600*
Y2749550*
X8170382Y2720975*
X8156527Y2701925*
X8135745Y2692400*
X8135745D02*
X8114964D01*
X8094182Y2701925*
X8087255Y2711450*
X8087255D02*
X8080327Y2730500D01*
X8329709Y2825750D02*
X8322782Y2797175D01*
X8308927Y2778125*
X8288145Y2768600*
X8288145D02*
X8281218D01*
X8260436Y2778125*
X8246582Y2797175*
X8239655Y2825750*
X8239655D02*
Y2835275D01*
X8239655D02*
X8246582Y2863850D01*
X8260436Y2882900*
X8281218Y2892425*
X8288145*
X8288145D02*
X8308927Y2882900D01*
X8322782Y2863850*
X8329709Y2825750*
Y2778125*
X8322782Y2730500*
X8308927Y2701925*
X8288145Y2692400*
X8288145D02*
X8274291D01*
X8253509Y2701925*
X8246582Y2720975*
X8426691Y2892425D02*
X8405909Y2882900D01*
X8398982Y2863850*
Y2844800*
X8405909Y2825750*
X8419764Y2816225*
X8447473Y2806700*
X8468255Y2797175*
X8468255D02*
X8482109Y2778125D01*
X8489036Y2759075*
Y2730500*
X8482109Y2711450*
X8475182Y2701925*
X8454400Y2692400*
X8426691*
X8405909Y2701925*
X8398982Y2711450*
X8392055Y2730500*
X8392055D02*
Y2759075D01*
X8392055D02*
X8398982Y2778125D01*
X8412836Y2797175*
X8433618Y2806700*
X8461327Y2816225*
X8475182Y2825750*
X8482109Y2844800*
Y2863850*
X8475182Y2882900*
X8454400Y2892425*
X8426691*
X10062682Y2844800D02*
Y2854325D01*
X10069609Y2873375*
X10076536Y2882900*
X10090391Y2892425*
X10118100*
X10131955Y2882900*
X10131955D02*
X10138882Y2873375D01*
X10145809Y2854325*
Y2835275*
X10138882Y2816225*
X10125027Y2787650*
X10055755Y2692400*
X10055755D02*
X10152736D01*
X10892800D02*
X11197600D01*
Y2997200*
X10892800*
Y2692400*
X11045200Y2844800D02*
Y2997200D01*
X11721764Y2892425D02*
X11777182Y2797175D01*
Y2692400*
X11832600Y2892425D02*
X11777182Y2797175D01*
X11894945Y2892425D02*
Y2692400D01*
Y2892425D02*
X11985000D01*
X11894945Y2797175D02*
X11950364D01*
X11894945Y2692400D02*
X11985000D01*
X12144327Y2863850D02*
X12130473Y2882900D01*
X12109691Y2892425*
X12081982*
X12061200Y2882900*
X12047345Y2863850*
X12047345D02*
Y2844800D01*
X12047345D02*
X12054273Y2825750D01*
X12061200Y2816225*
X12075055Y2806700*
X12116618Y2787650*
X12130473Y2778125*
X12137400Y2768600*
X12144327Y2749550*
Y2720975*
X12130473Y2701925*
X12109691Y2692400*
X12081982*
X12061200Y2701925*
X12047345Y2720975*
X13072582Y2863850D02*
Y2692400D01*
X13010236Y2778125D02*
X13134927D01*
X13321964Y2930525D02*
X13197273Y2625725D01*
X13384309Y2778125D02*
X13509000D01*
X13612909Y2892425D02*
X13592127Y2882900D01*
X13578273Y2854325*
X13571345Y2806700*
X13571345D02*
Y2778125D01*
X13571345D02*
X13578273Y2730500D01*
X13592127Y2701925*
X13612909Y2692400*
X13626764*
X13647545Y2701925*
X13647545D02*
X13661400Y2730500D01*
X13668327Y2778125*
Y2806700*
X13661400Y2854325*
X13647545Y2882900*
X13647545D02*
X13626764Y2892425D01*
X13612909*
X13737600Y2711450D02*
X13730673Y2701925D01*
X13737600Y2692400*
X13744527Y2701925*
X13737600Y2711450*
X13848436Y2892425D02*
X13827655Y2882900D01*
X13813800Y2854325*
X13806873Y2806700*
Y2778125*
X13813800Y2730500*
X13827655Y2701925*
X13848436Y2692400*
X13862291*
X13883073Y2701925*
X13896927Y2730500*
X13903855Y2778125*
Y2806700*
X13896927Y2854325*
X13883073Y2882900*
X13862291Y2892425*
X13848436*
X0Y0D02*
M02*
