%
T1C.01969F095S3
X010787Y009331
X011142Y010669
X011929Y010669
X012717Y010669
X013858Y009528
X014528Y009449
X012913Y007894
X012598Y006575
T2C.035F197S55
X01Y006
X01Y007
X011449Y007008
X01Y008
X01Y009
X01Y01
X014449Y007008
X013449Y007008
X015906Y005984
X015906Y006984
X015906Y007984
X015906Y008984
X015906Y009984
T3C.037F197S55
X012362Y008843
X012362Y009843
M30
