*
*
G04 PADS 9.4.1 Build Number: 494907 generated Gerber (RS-274-X) file*
G04 PC Version=2.1*
*
%IN "IRF_rev2.pcb"*%
*
%MOMM*%
*
%FSLAX35Y35*%
*
*
*
*
G04 PC Standard Apertures*
*
*
G04 Thermal Relief Aperture macro.*
%AMTER*
1,1,$1,0,0*
1,0,$1-$2,0,0*
21,0,$3,$4,0,0,45*
21,0,$3,$4,0,0,135*
%
*
*
G04 Annular Aperture macro.*
%AMANN*
1,1,$1,0,0*
1,0,$2,0,0*
%
*
*
G04 Odd Aperture macro.*
%AMODD*
1,1,$1,0,0*
1,0,$1-0.005,0,0*
%
*
*
G04 PC Custom Aperture Macros*
*
*
*
*
*
*
G04 PC Aperture Table*
*
%ADD010C,0.0254*%
%ADD016C,0.254*%
%ADD023C,0.2*%
%ADD024C,0.127*%
%ADD025C,0.15*%
*
*
*
*
G04 PC Circuitry*
G04 Layer Name IRF_rev2.pcb - circuitry*
%LPD*%
*
*
G04 PC Custom Flashes*
G04 Layer Name IRF_rev2.pcb - flashes*
%LPD*%
*
*
G04 PC Circuitry*
G04 Layer Name IRF_rev2.pcb - circuitry*
%LPD*%
*
G54D10*
G54D16*
G01X3015540Y2621920D02*
G75*
G03X3269540I127000J-238852D01*
G01X3264460Y2627000D02*
X3010460D01*
X2647000Y1402000D02*
X2432000D01*
Y2665000*
X2647000*
Y1402000*
X3933000Y2658000D02*
X4148000D01*
Y1395000*
X3933000*
Y2658000*
X3797000Y1780000D02*
X2781000D01*
Y510000*
X3797000*
Y1780000*
X2759000Y2206312D02*
Y2373000D01*
Y2206312D02*
X2718591D01*
X2718591D02*
X2701273Y2214250D01*
X2689727Y2230125*
X2683955Y2246000*
X2683955D02*
X2678182Y2269812D01*
X2678182D02*
Y2309500D01*
X2683955Y2333312*
X2683955D02*
X2689727Y2349187D01*
X2689727D02*
X2701273Y2365062D01*
X2701273D02*
X2718591Y2373000D01*
X2759000*
X2626227Y2238062D02*
X2614682Y2230125D01*
X2597364Y2206312*
X2597364D02*
Y2373000D01*
X2390000Y1340000D02*
X4190000D01*
Y2840000*
X2390000*
Y1340000*
G54D23*
X2770000Y2530000D02*
X2710000D01*
X3450000Y2080000D02*
X3390000D01*
G54D24*
X2511136Y2456656D02*
Y2520156D01*
X2514023Y2532062*
X2514023D02*
X2516909Y2536031D01*
X2522682Y2540000*
X2528455*
X2528455D02*
X2534227Y2536031D01*
X2537114Y2532062*
X2537114D02*
X2540000Y2520156D01*
Y2512219*
X2482273Y2476500D02*
Y2472531D01*
X2479386Y2464594*
X2476500Y2460625*
X2470727Y2456656*
X2459182*
X2453409Y2460625*
X2450523Y2464594*
X2447636Y2472531*
Y2480469*
X2450523Y2488406*
X2456295Y2500312*
X2456295D02*
X2485159Y2540000D01*
X2444750*
X4068864Y1603344D02*
Y1539844D01*
X4065977Y1527938*
X4065977D02*
X4063091Y1523969D01*
X4057318Y1520000*
X4051545*
X4051545D02*
X4045773Y1523969D01*
X4042886Y1527938*
X4042886D02*
X4040000Y1539844D01*
Y1547781*
X4100614Y1603344D02*
X4132364D01*
X4115045Y1571594*
X4115045D02*
X4123705D01*
X4123705D02*
X4129477Y1567625D01*
X4132364Y1563656*
X4135250Y1551750*
Y1543813*
X4135250D02*
X4132364Y1531906D01*
X4126591Y1523969*
X4117932Y1520000*
X4109273*
X4100614Y1523969*
X4097727Y1527938*
X4097727D02*
X4094841Y1535875D01*
X3670000Y1696656D02*
Y1756187D01*
X3670000D02*
X3667114Y1768094D01*
X3661341Y1776031*
X3652682Y1780000*
X3646909*
X3638250Y1776031*
X3632477Y1768094*
X3629591Y1756187*
X3629591D02*
Y1696656D01*
X3597841D02*
X3566091D01*
X3583409Y1728406*
X3574750*
X3568977Y1732375*
X3566091Y1736344*
X3563205Y1748250*
X3563205D02*
Y1756187D01*
X3563205D02*
X3566091Y1768094D01*
X3571864Y1776031*
X3580523Y1780000*
X3589182*
X3597841Y1776031*
X3600727Y1772062*
X3600727D02*
X3603614Y1764125D01*
G54D25*
X2700156Y2467955D02*
X2798594D01*
X2700156D02*
Y2498636D01*
X2704844Y2508864*
X2709531Y2512273*
X2718906Y2515682*
X2728281*
X2737656Y2512273*
X2742344Y2508864*
X2747031Y2498636*
Y2467955*
Y2491818D02*
X2798594Y2515682D01*
X2718906Y2546364D02*
X2714219Y2553182D01*
X2700156Y2563409*
X2798594*
X3380156Y2002614D02*
X3478594D01*
X3380156D02*
Y2033295D01*
X3380156D02*
X3384844Y2043523D01*
X3389531Y2046932*
X3398906Y2050341*
X3408281*
X3417656Y2046932*
X3422344Y2043523*
X3427031Y2033295*
X3427031D02*
Y2002614D01*
Y2026477D02*
X3478594Y2050341D01*
X3380156Y2087841D02*
Y2125341D01*
X3417656Y2104886*
Y2115114*
X3422344Y2121932*
X3427031Y2125341*
X3441094Y2128750*
X3450469*
X3464531Y2125341*
X3473906Y2118523*
X3478594Y2108295*
X3478594D02*
Y2098068D01*
X3473906Y2087841*
X3469219Y2084432*
X3459844Y2081023*
G74*
X0Y0D02*
M02*
